<?xml version="1.0" encoding="utf-8"?>
<!-- Generator: Adobe Illustrator 16.0.0, SVG Export Plug-In . SVG Version: 6.00 Build 0)  -->
<!DOCTYPE svg PUBLIC "-//W3C//DTD SVG 1.1//EN" "http://www.w3.org/Graphics/SVG/1.1/DTD/svg11.dtd">
<svg version="1.1" id="Layer_1" xmlns="http://www.w3.org/2000/svg" xmlns:xlink="http://www.w3.org/1999/xlink" x="0px" y="0px"
	 width="40px" height="40px" viewBox="0 0 40 40" enable-background="new 0 0 40 40" xml:space="preserve">
<path fill-rule="evenodd" clip-rule="evenodd" fill="#FFFFFF" d="M12.669,21.076c0-1.963,0-3.836,0-5.795
	c0.907,0,1.79-0.034,2.668,0.013c0.596,0.03,0.806-0.133,0.797-0.765c-0.025-1.543-0.008-3.091,0.063-4.631
	c0.137-2.945,1.89-5.006,4.847-5.369c2.216-0.272,4.471-0.204,6.708-0.253c0.147-0.004,0.431,0.276,0.435,0.431
	c0.028,1.693,0.011,3.388,0.023,5.079c0.005,0.424-0.223,0.482-0.562,0.48c-1.059-0.007-2.117-0.009-3.176,0.002
	c-1.105,0.011-1.464,0.381-1.473,1.504c-0.006,1.14-0.002,2.28-0.002,3.493c1.74,0,3.421,0,5.195,0
	c-0.041,0.51-0.075,0.941-0.111,1.372c-0.101,1.2-0.223,2.4-0.296,3.601c-0.034,0.604-0.255,0.835-0.89,0.801
	c-1.078-0.051-2.158,0.011-3.238-0.023c-0.535-0.017-0.673,0.176-0.671,0.694c0.018,5.142,0,10.287,0.023,15.431
	c0.005,0.632-0.149,0.847-0.808,0.829c-1.754-0.045-3.514-0.043-5.27,0c-0.651,0.016-0.827-0.194-0.824-0.827
	c0.019-5.058,0.011-10.117,0.011-15.175c0-0.892-0.002-0.892-0.898-0.892C14.398,21.076,13.573,21.076,12.669,21.076z"/>
</svg>
