<?xml version="1.0" encoding="utf-8"?>
<!-- Generator: Adobe Illustrator 16.0.0, SVG Export Plug-In . SVG Version: 6.00 Build 0)  -->
<!DOCTYPE svg PUBLIC "-//W3C//DTD SVG 1.1//EN" "http://www.w3.org/Graphics/SVG/1.1/DTD/svg11.dtd">
<svg version="1.1" id="Layer_1" xmlns="http://www.w3.org/2000/svg" xmlns:xlink="http://www.w3.org/1999/xlink" x="0px" y="0px"
	 width="40px" height="40px" viewBox="0 0 40 40" enable-background="new 0 0 40 40" xml:space="preserve">
<path fill-rule="evenodd" clip-rule="evenodd" fill="#FFFFFF" d="M14.017,35.844c-0.439,0-0.876,0-1.312,0
	c-0.138-0.021-0.273-0.043-0.413-0.058c-0.712-0.071-1.425-0.114-2.133-0.215c-2.842-0.406-5.479-1.387-7.933-2.875
	c-0.085-0.052-0.167-0.105-0.249-0.159c1.976,0.181,3.902,0.009,5.794-0.53c1.888-0.538,3.604-1.408,5.197-2.655
	c-3.453-0.277-5.764-1.982-7.027-5.158c0.601,0.025,1.146,0.075,1.693,0.069c0.55-0.009,1.101-0.078,1.683-0.28
	c-4.407-1.004-6.153-4.963-5.987-7.415c1.038,0.533,2.124,0.869,3.292,0.862c-3.922-2.78-3.792-7.609-2.253-9.955
	c4.074,4.769,9.221,7.396,15.521,7.822c-0.015-0.105-0.021-0.146-0.028-0.187c-0.168-0.881-0.213-1.761-0.078-2.655
	c0.471-3.096,2.715-5.53,5.766-6.229c0.415-0.092,0.839-0.142,1.258-0.213c0.263,0,0.524,0,0.787,0
	c0.084,0.02,0.168,0.049,0.254,0.056c1.82,0.155,3.371,0.89,4.667,2.169c0.136,0.133,0.261,0.17,0.438,0.129
	c1.492-0.331,2.907-0.86,4.238-1.608c0.063-0.035,0.129-0.063,0.236-0.114c-0.295,0.886-0.721,1.64-1.269,2.326
	c-0.546,0.682-1.202,1.245-1.925,1.737c1.433-0.136,2.791-0.514,4.176-1.097c-0.088,0.138-0.131,0.208-0.179,0.275
	c-0.918,1.292-2.006,2.418-3.278,3.362c-0.183,0.135-0.247,0.275-0.236,0.501c0.058,1.286-0.02,2.565-0.224,3.835
	c-0.558,3.457-1.814,6.639-3.866,9.479c-3.771,5.229-8.893,8.102-15.312,8.667C14.883,35.769,14.449,35.806,14.017,35.844z"/>
</svg>
